<svg id="Capa_1" data-name="Capa 1" xmlns="http://www.w3.org/2000/svg" viewBox="0 0 443.38 168"><defs><style>.cls-1{fill:#f31e53;}</style></defs><path class="cls-1" d="M164.69,222.45a70.88,70.88,0,0,0-16-23.49,71,71,0,0,0-6.67-5.73A71,71,0,0,0,56.74,193a70.8,70.8,0,0,0-28.43,56.8,70.21,70.21,0,0,0,7.11,31,70.95,70.95,0,0,0,129.27-58.37ZM94.51,191.86v35.76A53,53,0,0,0,84.19,212.3a54.88,54.88,0,0,0-16.88-11.09A57.42,57.42,0,0,1,94.51,191.86Zm-49.37,79.4A58.47,58.47,0,0,1,44,231.43a49.65,49.65,0,0,0,8.6,11.85,51.38,51.38,0,0,0,12.63,9.05,51.57,51.57,0,0,0-12.63,9A48,48,0,0,0,45.14,271.26Zm17.51,23.8a58.48,58.48,0,0,1-11.8-12.92c-.7-1-1.36-2.1-2-3.19a47.53,47.53,0,0,1,8.87-13.05,47.72,47.72,0,0,1,15.68-10c2.14.8,4.37,1.53,6.66,2.17.66.19,1.32.36,2,.53l2.36.58c3.36.78,6.35,1.29,8.61,1.61L92.66,262c-4,14.65-10.22,22.45-13.57,25.8A46.25,46.25,0,0,1,65.21,297C64.33,296.39,63.48,295.73,62.65,295.06Zm31.86,12.75a58,58,0,0,1-22.58-6.6,51.09,51.09,0,0,0,12.26-8.86A53.08,53.08,0,0,0,94.51,277Zm0-53.57c-8-1.1-26-4.69-36.77-15.49-2.48-2.47-6.54-7.41-10.11-15.77q1-2,2.21-3.88a58.67,58.67,0,0,1,9-11.12c.72-.7,1.46-1.37,2.22-2,1.76.65,3.53,1.39,5.28,2.21a15.24,15.24,0,0,0-8.71,13.52A14.92,14.92,0,0,0,72.56,236.6c6.58,0,11.81-4.64,13.93-9.6a71.51,71.51,0,0,1,6.17,15.62l.35,1.26h0c.64,2.6,1.12,5,1.47,7.08.21,1.26.38,2.39.5,3.36ZM105.13,192a57.35,57.35,0,0,1,26.31,9.44A54.75,54.75,0,0,0,115,212.3a52.24,52.24,0,0,0-9.86,14.34V192Zm0,56.48c.28-1.42.61-3,1-4.56h0l.34-1.26A71.71,71.71,0,0,1,112.69,227c2.12,5,7.34,9.6,13.93,9.6a14.92,14.92,0,0,0,14.92-14.92,15.26,15.26,0,0,0-8.71-13.52c1.58-.75,3.19-1.42,4.78-2,.74.64,1.45,1.31,2.16,2a58.5,58.5,0,0,1,9.29,11.68c.77,1.28,1.5,2.59,2.17,3.94a49.35,49.35,0,0,1-9.78,15c-10.6,10.61-28.06,14.26-36.31,15.43l-1,.13C104.38,252.74,104.69,250.73,105.13,248.44Zm0,59.27V278A52.44,52.44,0,0,0,115,292.36a51.08,51.08,0,0,0,11.9,8.67A57.93,57.93,0,0,1,105.13,307.71Zm42.9-26.2a58.06,58.06,0,0,1-12,13.39c-.81.66-1.63,1.3-2.48,1.92a45.79,45.79,0,0,1-13.43-9c-3.35-3.35-9.56-11.15-13.57-25.8l-.33-1.22c2.26-.32,5.25-.83,8.62-1.61.84-.19,1.61-.38,2.35-.58s1.29-.34,2-.53c2.28-.64,4.52-1.37,6.66-2.18a47.61,47.61,0,0,1,15.67,10A46.85,46.85,0,0,1,150,278.25C149.37,279.37,148.71,280.45,148,281.51Zm5.59-11a47.65,47.65,0,0,0-7.07-9.15,51.51,51.51,0,0,0-12.62-9,51.32,51.32,0,0,0,12.62-9.05,49.66,49.66,0,0,0,8.15-11,58.37,58.37,0,0,1-1.08,38.27Z" transform="translate(-28.31 -166)"/><path class="cls-1" d="M267.51,181.39,245,224.88v23.23H231.57V224.88l-22.65-43.49H224l14.34,30.49,14.24-30.49Z" transform="translate(-28.31 -166)"/><path class="cls-1" d="M285,245.58a24.4,24.4,0,0,1-9.61-9.61,28.74,28.74,0,0,1-3.49-14.34,28.19,28.19,0,0,1,3.58-14.34,24.94,24.94,0,0,1,9.8-9.61,30,30,0,0,1,27.72,0,24.87,24.87,0,0,1,9.8,9.61,28.16,28.16,0,0,1,3.58,14.34A27.62,27.62,0,0,1,322.7,236a25.56,25.56,0,0,1-9.94,9.61,28.91,28.91,0,0,1-14,3.39A27.9,27.9,0,0,1,285,245.58Zm20.6-10a12.88,12.88,0,0,0,5.11-5.3,17.92,17.92,0,0,0,1.91-8.6q0-7.54-4-11.61A13,13,0,0,0,299,206a12.74,12.74,0,0,0-9.61,4.06q-3.87,4.07-3.87,11.61c0,5,1.26,8.91,3.78,11.61a12.43,12.43,0,0,0,9.51,4.06A14,14,0,0,0,305.6,235.54Z" transform="translate(-28.31 -166)"/><path class="cls-1" d="M344.83,246.63a20.52,20.52,0,0,1-8.17-6.36,16.09,16.09,0,0,1-3.3-8.89h13.48a7.34,7.34,0,0,0,3,5.07,10.45,10.45,0,0,0,6.55,2,10.14,10.14,0,0,0,6-1.53,4.64,4.64,0,0,0,2.15-3.92,4.14,4.14,0,0,0-2.63-3.87,49.49,49.49,0,0,0-8.36-2.82,71.14,71.14,0,0,1-9.7-3,16.88,16.88,0,0,1-6.5-4.68c-1.82-2.1-2.72-4.94-2.72-8.51a13.72,13.72,0,0,1,2.53-8,17,17,0,0,1,7.26-5.73,27.27,27.27,0,0,1,11.14-2.1q9.46,0,15.1,4.73a17.51,17.51,0,0,1,6.21,12.76H364a6.94,6.94,0,0,0-2.63-5,11.85,11.85,0,0,0-11.85-.52,4.26,4.26,0,0,0-2,3.73,4.37,4.37,0,0,0,2.68,4.06,42,42,0,0,0,8.32,2.82,71,71,0,0,1,9.46,3,16.68,16.68,0,0,1,6.45,4.73,13,13,0,0,1,2.82,8.46,14.08,14.08,0,0,1-2.53,8.22,16.72,16.72,0,0,1-7.26,5.69,27.49,27.49,0,0,1-11,2.06A28.28,28.28,0,0,1,344.83,246.63Z" transform="translate(-28.31 -166)"/><path class="cls-1" d="M437.17,225.65H398.46a13.18,13.18,0,0,0,4,9,12.37,12.37,0,0,0,8.7,3.25q7.45,0,10.61-6.4h14.43a24.12,24.12,0,0,1-8.79,12.57q-6.5,4.92-16,4.92a27.66,27.66,0,0,1-13.72-3.39,23.79,23.79,0,0,1-9.46-9.61,29.45,29.45,0,0,1-3.39-14.34,29.86,29.86,0,0,1,3.35-14.43,23.33,23.33,0,0,1,9.37-9.56,30.07,30.07,0,0,1,27.39-.1,22.92,22.92,0,0,1,9.27,9.22,27.88,27.88,0,0,1,3.3,13.72A34.5,34.5,0,0,1,437.17,225.65Zm-13.48-9a10.61,10.61,0,0,0-3.73-8.27,13.22,13.22,0,0,0-8.89-3.11,12.13,12.13,0,0,0-8.36,3,13.27,13.27,0,0,0-4.16,8.36h25.14Z" transform="translate(-28.31 -166)"/><path class="cls-1" d="M448.2,186.6a7.85,7.85,0,0,1,0-11.18,8.81,8.81,0,0,1,11.76,0,7.85,7.85,0,0,1,0,11.18,8.81,8.81,0,0,1-11.76,0Zm12.48,8.56v53H447.3v-53Z" transform="translate(-28.31 -166)"/><path class="cls-1" d="M259,266.27v59.47H247v-25.3H221.56v25.3H209.63V266.27h11.93v24.45H247V266.27Z" transform="translate(-28.31 -166)"/><path class="cls-1" d="M279.41,323.48a21.75,21.75,0,0,1-8.56-8.56,25.68,25.68,0,0,1-3.11-12.78,25,25,0,0,1,3.2-12.78,22.17,22.17,0,0,1,8.73-8.56,26.76,26.76,0,0,1,24.7,0,22.24,22.24,0,0,1,8.73,8.56,25.1,25.1,0,0,1,3.2,12.78A24.56,24.56,0,0,1,313,314.92a22.7,22.7,0,0,1-8.86,8.56,25.72,25.72,0,0,1-12.48,3A24.9,24.9,0,0,1,279.41,323.48Zm18.36-9a11.51,11.51,0,0,0,4.56-4.73,15.89,15.89,0,0,0,1.7-7.67q0-6.74-3.54-10.35a11.64,11.64,0,0,0-8.65-3.62,11.35,11.35,0,0,0-8.56,3.62c-2.3,2.41-3.45,5.87-3.45,10.35s1.12,7.94,3.37,10.35a11.09,11.09,0,0,0,8.48,3.62A12.29,12.29,0,0,0,297.77,314.53Z" transform="translate(-28.31 -166)"/><path class="cls-1" d="M369.63,278.54v47.2h-12v-6a15.73,15.73,0,0,1-6,4.81,18.69,18.69,0,0,1-8.05,1.75,20,20,0,0,1-9.8-2.34,16.51,16.51,0,0,1-6.69-6.9,22.79,22.79,0,0,1-2.43-10.86V278.55h11.93v26q0,5.63,2.81,8.65a9.94,9.94,0,0,0,7.67,3,10.08,10.08,0,0,0,7.75-3q2.81-3,2.81-8.65v-26h12Z" transform="translate(-28.31 -166)"/><path class="cls-1" d="M389.06,324.41a18.22,18.22,0,0,1-7.28-5.67,14.37,14.37,0,0,1-2.94-7.92h12a6.57,6.57,0,0,0,2.68,4.52,9.36,9.36,0,0,0,5.84,1.79,9,9,0,0,0,5.32-1.36,4.12,4.12,0,0,0,1.92-3.49,3.69,3.69,0,0,0-2.34-3.45,44.07,44.07,0,0,0-7.45-2.51,63.14,63.14,0,0,1-8.65-2.64,15.08,15.08,0,0,1-5.79-4.17,11.19,11.19,0,0,1-2.43-7.58,12.22,12.22,0,0,1,2.26-7.16,15.08,15.08,0,0,1,6.48-5.11,24.27,24.27,0,0,1,9.93-1.87q8.43,0,13.46,4.22a15.62,15.62,0,0,1,5.54,11.37H406.2a6.17,6.17,0,0,0-2.34-4.47,8.69,8.69,0,0,0-5.58-1.66,8.81,8.81,0,0,0-5,1.19,3.82,3.82,0,0,0-1.75,3.32,3.89,3.89,0,0,0,2.39,3.62,37.17,37.17,0,0,0,7.41,2.51,62.05,62.05,0,0,1,8.43,2.64,14.92,14.92,0,0,1,5.75,4.22,11.54,11.54,0,0,1,2.51,7.54,12.48,12.48,0,0,1-2.26,7.33,14.85,14.85,0,0,1-6.48,5.07,24.54,24.54,0,0,1-9.84,1.83A25.09,25.09,0,0,1,389.06,324.41Z" transform="translate(-28.31 -166)"/><path class="cls-1" d="M471.36,305.71H436.85a11.72,11.72,0,0,0,3.58,8,11,11,0,0,0,7.75,2.9q6.65,0,9.46-5.71H470.5a21.48,21.48,0,0,1-7.84,11.2,22.86,22.86,0,0,1-14.23,4.39,24.72,24.72,0,0,1-12.23-3,21.25,21.25,0,0,1-8.43-8.56,26.18,26.18,0,0,1-3-12.78,26.69,26.69,0,0,1,3-12.86,20.83,20.83,0,0,1,8.35-8.52,26.8,26.8,0,0,1,24.41-.08,20.37,20.37,0,0,1,8.26,8.22,24.89,24.89,0,0,1,2.94,12.23A26.69,26.69,0,0,1,471.36,305.71Zm-12-8a9.46,9.46,0,0,0-3.32-7.37,11.75,11.75,0,0,0-7.92-2.77,10.8,10.8,0,0,0-7.45,2.68A11.8,11.8,0,0,0,437,297.7h22.4Z" transform="translate(-28.31 -166)"/><path class="cls-1" d="M187.74,334h-2.89a2,2,0,0,1-1.95-1.95V168a2,2,0,0,1,1.95-1.95h2.89a2,2,0,0,1,1.95,1.95V332A1.94,1.94,0,0,1,187.74,334Z" transform="translate(-28.31 -166)"/></svg>